<svg width="52" height="52" viewBox="0 0 52 52" fill="none" xmlns="http://www.w3.org/2000/svg">
<path d="M34.667 17.3335C38.1148 17.3335 41.4214 18.7031 43.8594 21.1411C46.2974 23.5791 47.667 26.8857 47.667 30.3335V45.5002H39.0003V30.3335C39.0003 29.1842 38.5438 28.082 37.7311 27.2694C36.9185 26.4567 35.8163 26.0002 34.667 26.0002C33.5177 26.0002 32.4155 26.4567 31.6029 27.2694C30.7902 28.082 30.3337 29.1842 30.3337 30.3335V45.5002H21.667V30.3335C21.667 26.8857 23.0366 23.5791 25.4746 21.1411C27.9126 18.7031 31.2192 17.3335 34.667 17.3335V17.3335Z" stroke="#4B5161" stroke-width="4.33333" stroke-linecap="round" stroke-linejoin="round"/>
<path d="M12.9997 19.5H4.33301V45.5H12.9997V19.5Z" stroke="#4B5161" stroke-width="4.33333" stroke-linecap="round" stroke-linejoin="round"/>
<path d="M8.66634 13.0002C11.0596 13.0002 12.9997 11.0601 12.9997 8.66683C12.9997 6.2736 11.0596 4.3335 8.66634 4.3335C6.27311 4.3335 4.33301 6.2736 4.33301 8.66683C4.33301 11.0601 6.27311 13.0002 8.66634 13.0002Z" stroke="#4B5161" stroke-width="4.33333" stroke-linecap="round" stroke-linejoin="round"/>
</svg>
