<svg width="390" height="600" viewBox="0 0 390 380" fill="none" xmlns="http://www.w3.org/2000/svg">
    <path d="M62.35 212.441c-7.898-3.2-13.937-7.145-18.115-11.834-3.964-4.769-6.89-10.033-8.78-15.794l5.565-5.236-9.056 17.557-30.158-12.218 84.068-162.97 29.942 12.13-45.497 88.198 4.795-9.295c5.297-1.516 11.565-2.057 18.806-1.621 7.24.437 14.81 2.255 22.708 5.454 8.186 3.317 14.694 8.201 19.526 14.653 4.832 6.452 7.411 14.073 7.738 22.863.542 8.71-1.815 18.16-7.072 28.35-5.256 10.19-12.1 18.072-20.531 23.646-8.288 5.632-17.195 8.933-26.723 9.901-9.527.968-18.6-.293-27.216-3.784zm5.896-27.079c4.451 1.804 9.112 2.36 13.983 1.67 5.014-.633 9.664-2.411 13.95-5.336 4.287-2.925 7.674-6.797 10.16-11.617 2.486-4.819 3.539-9.553 3.159-14.202-.38-4.649-1.975-8.792-4.787-12.428-2.597-3.716-6.122-6.476-10.574-8.279-3.877-1.571-7.859-2.435-11.945-2.592-3.87-.236-7.595.253-11.173 1.467-3.364 1.134-6.473 2.955-9.328 5.461l-11.4 22.101c.16 3.727.856 7.089 2.088 10.086 1.447 2.917 3.466 5.566 6.057 7.947 2.662 2.244 5.932 4.151 9.81 5.722zM161.975 247.566c-2.925 0-5.379-.893-7.363-2.678-1.983-1.834-3.024-4.189-3.123-7.065v-24.32h10.412v20.452c.099 1.438.471 2.604 1.115 3.496.645.843 1.736 1.264 3.273 1.264 1.537 0 2.851-.52 3.942-1.561 1.14-1.042 2.008-2.455 2.603-4.24.644-1.834.967-3.892.967-6.173v-13.238h10.412v32.501h-9.446l-.818-5.95.149.669a14.04 14.04 0 0 1-2.826 3.57c-1.14 1.042-2.504 1.835-4.091 2.38-1.537.595-3.272.893-5.206.893z" fill="#BDDEC2" fill-opacity=".6"/>
    <path d="M30.987 373.861 185.311 18.265h3.719l154.324 355.596h-78.092l-98.544-250.079 48.807-33.468L97.458 373.86h-66.47zm105.517-123.645h102.728l23.706 56.71H115.587l20.917-56.71z" fill="#BDDEC2" fill-opacity=".6"/>
    <path d="m313.579 185.315 30.159 12.216-16.578 40.929 22.834 9.249-9.511 23.48-22.834-9.249-28.793 71.088-30.159-12.216 28.794-71.087-14.649-5.933 9.511-23.481 14.648 5.934 16.578-40.93z" fill="#BDDEC2" fill-opacity=".6"/>
    <path d="M153.963 165.447c0-10.382 2.401-19.678 7.205-27.89 4.958-8.212 11.853-14.642 20.685-19.291 8.831-4.803 18.98-7.205 30.446-7.205 11.621 0 21.692 2.402 30.214 7.205 8.522 4.649 15.03 11.079 19.523 19.291 4.648 8.212 6.973 17.508 6.973 27.89 0 10.381-2.325 19.755-6.973 28.122-4.493 8.212-11.001 14.72-19.523 19.523-8.522 4.803-18.748 7.205-30.679 7.205-11.156 0-21.15-2.169-29.981-6.508-8.677-4.338-15.495-10.614-20.453-18.826s-7.437-18.051-7.437-29.516zm32.77.232c0 5.268 1.085 10.071 3.254 14.41 2.169 4.183 5.113 7.515 8.832 9.994 3.719 2.479 7.902 3.718 12.55 3.718 5.114 0 9.529-1.239 13.248-3.718 3.719-2.479 6.585-5.811 8.599-9.994 2.015-4.339 3.022-9.142 3.022-14.41 0-5.423-1.007-10.226-3.022-14.41-2.014-4.183-4.88-7.515-8.599-9.994-3.719-2.479-8.134-3.718-13.248-3.718-4.648 0-8.831 1.239-12.55 3.718-3.719 2.479-6.663 5.811-8.832 9.994-2.169 4.184-3.254 8.987-3.254 14.41z" fill="#fff" fill-opacity=".5"/>
    <path d="m340.39 129.544.818 5.727-.149-.447c1.29-2.181 2.901-3.867 4.835-5.057 1.933-1.24 4.264-1.859 6.991-1.859 1.785 0 3.346.248 4.685.743 1.388.496 2.554 1.24 3.496 2.232.942.942 1.586 2.181 1.933 3.718l-.371.075c1.388-2.033 3.049-3.669 4.983-4.909 1.983-1.24 4.041-1.859 6.173-1.859 3.222 0 5.776.917 7.66 2.751 1.934 1.785 2.925 4.116 2.975 6.992v24.394h-10.338v-20.081c-.05-1.438-.273-2.603-.669-3.495-.397-.942-1.314-1.463-2.752-1.562-1.686 0-3.124.595-4.314 1.785-1.14 1.14-2.008 2.628-2.603 4.462a18.993 18.993 0 0 0-.818 5.578v13.313h-10.412v-20.081c-.05-1.438-.322-2.603-.818-3.495-.447-.942-1.389-1.463-2.826-1.562-1.637 0-3.025.595-4.165 1.785-1.091 1.14-1.934 2.603-2.529 4.388a18.74 18.74 0 0 0-.818 5.503v13.462h-10.412v-32.501h9.445zm29.641 90.393c-3.966 0-7.338-.743-10.115-2.231-2.727-1.487-4.809-3.545-6.247-6.173-1.438-2.628-2.157-5.652-2.157-9.073 0-3.273.843-6.223 2.529-8.851 1.686-2.628 3.942-4.71 6.768-6.247 2.826-1.587 5.975-2.38 9.445-2.38 4.661 0 8.479 1.364 11.454 4.091 3.024 2.677 4.983 6.569 5.875 11.676l-25.287 8.032-2.305-5.652 18.296-6.173-2.157.967c-.397-1.289-1.116-2.405-2.157-3.347-.992-.991-2.504-1.487-4.537-1.487-1.537 0-2.9.372-4.09 1.115-1.141.694-2.033 1.711-2.678 3.05-.595 1.289-.892 2.826-.892 4.611 0 2.033.372 3.743 1.115 5.131.744 1.339 1.761 2.356 3.05 3.05s2.727 1.041 4.313 1.041a9.11 9.11 0 0 0 3.273-.595 17.292 17.292 0 0 0 3.198-1.562l4.611 7.735a26.14 26.14 0 0 1-5.652 2.38c-1.984.595-3.868.892-5.653.892z" fill="#F45B69" fill-opacity=".25"/>
</svg>
