<svg width="550" height="550" viewBox="0 0 550 550" fill="none" xmlns="http://www.w3.org/2000/svg">
    <path d="M275 550C123.31 550 0 426.69 0 275S123.31 0 275 0s275 123.31 275 275-123.31 275-275 275zm0-546.477C125.267 3.523 3.523 125.267 3.523 275c0 149.733 121.744 271.477 271.477 271.477 149.733 0 271.477-121.744 271.477-271.477C546.477 125.267 424.733 3.523 275 3.523z" fill="#C9C9C9" fill-opacity=".5"/>
    <path d="M275 516.922C141.708 516.922 33.078 408.487 33.078 275 33.078 141.708 141.512 33.078 275 33.078c133.487 0 241.922 108.434 241.922 241.922 0 133.487-108.63 241.922-241.922 241.922zm0-480.32C143.665 36.601 36.601 143.47 36.601 275c0 131.334 106.869 238.398 238.399 238.398S513.398 406.53 513.398 275c0-131.335-107.064-238.399-238.398-238.399z" fill="#C9C9C9" fill-opacity=".5"/>
    <path d="M275 483.843c-115.089 0-208.647-93.754-208.647-208.843C66.353 159.911 159.91 66.352 275 66.352c115.089 0 208.648 93.559 208.648 208.648S390.089 483.843 275 483.843zm0-413.968C161.869 69.875 69.876 161.868 69.876 275c0 113.131 91.993 205.124 205.124 205.124 113.132 0 205.125-91.993 205.125-205.124 0-113.132-91.993-205.125-205.125-205.125z" fill="#C9C9C9" fill-opacity=".5"/>
    <path d="M275 450.569c-96.886 0-175.57-78.683-175.57-175.569 0-96.887 78.684-175.57 175.57-175.57S450.569 178.113 450.569 275c0 96.886-78.683 175.569-175.569 175.569zm0-347.616c-94.929 0-172.046 77.118-172.046 172.047 0 94.928 77.117 172.046 172.046 172.046 94.929 0 172.046-77.118 172.046-172.046 0-94.929-77.117-172.047-172.046-172.047z" fill="#C9C9C9" fill-opacity=".5"/>
    <path d="M275 417.491c-78.488 0-142.491-63.808-142.491-142.492 0-78.683 63.808-142.491 142.491-142.491 78.683 0 142.491 63.808 142.491 142.491 0 78.684-64.004 142.492-142.491 142.492zm0-281.264c-76.53 0-138.968 62.242-138.968 138.968S198.274 414.163 275 414.163s138.968-62.242 138.968-138.968S351.53 136.227 275 136.227z" fill="#C9C9C9" fill-opacity=".5"/>
    <path d="M274.999 384.217c-60.284 0-109.217-48.932-109.217-109.217s48.933-109.217 109.217-109.217c60.285 0 109.217 48.932 109.217 109.217s-48.932 109.217-109.217 109.217zm0-214.911c-58.327 0-105.694 47.366-105.694 105.694 0 58.327 47.367 105.694 105.694 105.694 58.328 0 105.694-47.367 105.694-105.694 0-58.328-47.366-105.694-105.694-105.694z" fill="#C9C9C9" fill-opacity=".5"/>
    <path d="M275 351.138c-41.886 0-76.139-34.057-76.139-76.139 0-42.082 34.057-76.139 76.139-76.139 42.082 0 76.139 34.057 76.139 76.139 0 42.082-34.253 76.139-76.139 76.139zm0-148.755c-39.929 0-72.616 32.492-72.616 72.616 0 40.125 32.492 72.616 72.616 72.616 40.125 0 72.616-32.491 72.616-72.616 0-40.124-32.491-72.616-72.616-72.616z" fill="#C9C9C9" fill-opacity=".5"/>
    <path d="M275 318.059c-23.683 0-43.061-19.181-43.061-43.06A42.937 42.937 0 0 1 275 231.938a42.936 42.936 0 0 1 43.06 43.061c0 23.879-19.377 43.06-43.06 43.06zm0-82.402c-21.726 0-39.342 17.616-39.342 39.342s17.616 39.342 39.342 39.342 39.342-17.616 39.342-39.342-17.616-39.342-39.342-39.342z" fill="#C9C9C9" fill-opacity=".5"/>
</svg>
