<svg width="299" height="260" viewBox="0 0 299 260" fill="none" xmlns="http://www.w3.org/2000/svg">
    <path fill-rule="evenodd" clip-rule="evenodd" d="M218.14-109.241c-12.485 5.499-35.309 43.378-43.892 73.112l-4.292 15.07-4.294-10.997c-21.068-53.561-45.648-75.963-65.351-59.263-12.68 10.793-6.63 61.503 12.487 105.288 3.901 8.757 6.828 16.089 6.828 16.292 0 .204-8.194-1.833-17.948-4.48C45.301 10.71-16.735 30.058 4.139 55.92c8.583 10.794 52.864 29.326 92.27 38.49 9.169 2.037 15.216 3.87 13.656 4.074-22.24 1.222-97.54 61.501-97.54 77.793 0 19.551 39.601 14.461 87.006-10.995l23.606-12.83-3.706 10.997c-10.535 31.77-12.683 68.834-4.294 75.555 19.118 15.681 42.332 0 56.378-38.083 6.827-18.329 5.659-18.736 17.949 6.109 23.409 47.859 44.671 63.336 64.179 46.229 5.657-5.091.78-52.134-7.998-75.758-.781-2.24 3.123-.407 11.511 5.498 48.185 34.01 107.097 24.029 83.102-13.85-7.998-12.626-27.894-31.157-49.938-46.634l-17.948-12.627 15.215-1.629c54.232-5.702 95.98-34.825 95.98-67.002 0-20.569-21.068-26.273-63.205-16.701l-5.464 1.224 6.244-10.997c33.359-59.06-6.828-79.628-60.474-30.752-6.048 5.499-9.951 8.144-9.171 5.904 21.264-60.077 3.123-115.469-33.357-99.177zm10.34 40.73c-1.366 22.199-10.144 60.486-23.02 99.994l-9.56 29.53c1.17-50.913.195-87.367 22.629-134.004 9.168-19.143 11.316-17.921 9.951 4.48zm-88.178 34.009c5.657 16.088 21.264 66.596 18.728 78.815-1.561 7.332-30.041-52.135-35.893-75.351-7.998-32.177 5.46-37.067 17.165-3.464zM299.683-6.6c-10.534 24.846-29.849 48.877-48.186 59.263-7.608 4.277-12.678 7.33-15.995 9.57-2.145 1.425-4.681-.813-3.901-3.257 4.487-15.274 68.863-84.516 71.204-76.777.39 1.222-1.171 6.11-3.122 11.201zM85.097 39.426c14.24 3.869 66.717 30.955 75.495 38.286 6.048 4.888 3.902 10.59-.39 10.59-22.824-.204-96.37-20.162-117.44-31.973-26.53-15.07 3.904-27.29 42.335-16.904zm266.866 3.258c0 34.214-56.768 59.466-101.441 45.21l-8.779-2.85c10.339-5.499 28.091-14.46 38.236-22.198 10.339-7.943 32.775-17.922 53.063-23.42 18.923-5.295 18.921-5.092 18.921 3.258zm-95.589 81.461c32.773 22.605 56.573 47.856 56.573 60.279 0 17.921-77.642-42.156-93.638-72.297-9.949-18.736-5.657-17.512 37.065 12.018zm-105.148-12.423c-6.632 5.499-22.822 15.07-51.108 30.344-48.965 26.271-50.137 26.882-40.579 16.496 18.728-20.365 56.378-44.192 79.788-50.709 11.899-3.462 21.068-3.666 11.899 3.869zm64.574 45.209c4.681 8.757 11.507 40.732 4.484 43.584-7.022 2.851-33.551-68.428-33.551-72.704 0-5.295 15.411 3.256 29.067 29.12z" fill="#303644" fill-opacity=".1"/>
</svg>
