<svg width="548" height="267" viewBox="0 0 548 267" fill="none" xmlns="http://www.w3.org/2000/svg">
<g opacity="0.75" clip-path="url(#clip0_308_3213)">
<rect width="548" height="267" fill="#FFFEF1" fill-opacity="0.75"/>
<path d="M34.0774 51.3813C31.3265 51.0409 29.0973 50.3099 27.3897 49.1883C25.7429 48.0237 24.3801 46.6161 23.3014 44.9655L24.6093 42.8516L23.2418 49.1302L12.7384 47.8305L25.4314 -10.4493L35.8599 -9.15887L28.9905 22.3816L29.7144 19.0577C31.2508 18.1353 33.1748 17.4378 35.4864 16.9652C37.798 16.4927 40.3292 16.4267 43.0801 16.7671C45.9311 17.1198 48.3871 18.1065 50.4483 19.7269C52.5095 21.3474 53.9615 23.5246 54.8043 26.2586C55.7078 28.9495 55.7627 32.1169 54.9691 35.761C54.1754 39.405 52.6887 42.4576 50.5091 44.9187C48.3794 47.386 45.8586 49.1727 42.9467 50.2789C40.0348 51.3852 37.0784 51.7526 34.0774 51.3813ZM33.65 42.3774C35.2005 42.5692 36.7118 42.3517 38.1838 41.7247C39.7058 41.1039 41.0171 40.1536 42.1177 38.8738C43.2183 37.594 43.9563 36.0924 44.3316 34.3688C44.707 32.6453 44.6393 31.0692 44.1287 29.6406C43.618 28.212 42.7678 27.0449 41.5783 26.1391C40.4494 25.1903 39.1098 24.6199 37.5593 24.4281C36.2088 24.261 34.8851 24.3247 33.5882 24.6194C32.352 24.871 31.223 25.3381 30.2011 26.0208C29.24 26.6604 28.4164 27.4941 27.7303 28.5217L26.0089 36.4253C26.3731 37.583 26.875 38.5806 27.5143 39.4183C28.2145 40.2129 29.0718 40.8753 30.0864 41.4054C31.1117 41.8863 32.2995 42.2103 33.65 42.3774Z" fill="#BDDEC2" fill-opacity="0.6"/>
<path d="M37.8809 103.571L56.431 -21.1434L57.5993 -21.4564L136.021 77.274L111.486 83.8482L59.4722 13.5735L71.9892 -1.05039L58.7649 97.9748L37.8809 103.571ZM60.6234 55.8405L92.8987 47.1924L105.121 63.0138L58.8256 75.4186L60.6234 55.8405Z" fill="#BDDEC2" fill-opacity="0.6"/>
<path d="M110.408 21.364L120.911 22.663L119.149 36.9178L127.101 37.9013L126.09 46.0791L118.137 45.0956L115.075 69.854L104.572 68.555L107.634 43.7966L102.532 43.1657L103.543 34.9879L108.645 35.6189L110.408 21.364Z" fill="#BDDEC2" fill-opacity="0.6"/>
<path d="M68.2283 52.952C67.3092 53.1982 66.463 53.1244 65.6896 52.7306C64.912 52.3212 64.3866 51.6689 64.1134 50.7737L62.066 43.1328L65.3373 42.2562L67.0591 48.6821C67.2113 49.1255 67.4263 49.4603 67.7039 49.6864C67.9774 49.897 68.3556 49.9376 68.8385 49.8082C69.3214 49.6788 69.6904 49.4046 69.9454 48.9856C70.2161 48.5625 70.3697 48.0455 70.4064 47.4346C70.4545 46.8039 70.3825 46.1303 70.1905 45.4138L69.076 41.2545L72.3474 40.3779L75.0835 50.5892L72.1159 51.3843L71.358 49.5839L71.461 49.7817C71.3401 50.2649 71.1443 50.718 70.8736 51.1412C70.603 51.5643 70.2414 51.9284 69.7888 52.2333C69.356 52.5496 68.8358 52.7892 68.2283 52.952Z" fill="#F6828B" fill-opacity="0.75"/>
<path d="M59.0197 28.647C58.1458 25.3854 58.1177 22.2624 58.9355 19.2779C59.8019 16.2804 61.4269 13.6797 63.8104 11.4758C66.1808 9.2232 69.1672 7.61427 72.7696 6.64902C76.4206 5.67072 79.7871 5.57742 82.8689 6.3691C85.9376 7.1121 88.5235 8.58451 90.6266 10.7863C92.7784 12.9751 94.2912 15.7003 95.1651 18.9619C96.0391 22.2235 96.098 25.3643 95.342 28.3844C94.6216 31.3427 93.1248 33.9352 90.8518 36.1617C88.5787 38.3882 85.5679 40.0037 81.8195 41.0081C78.3145 41.9472 74.992 42.107 71.852 41.4875C68.7606 40.8549 66.0904 39.4572 63.8413 37.2946C61.5922 35.1319 59.985 32.2494 59.0197 28.647ZM69.3353 25.9612C69.7787 27.6164 70.5239 29.0342 71.5706 30.2146C72.6044 31.3464 73.8097 32.1452 75.1868 32.611C76.5638 33.0768 77.9825 33.1141 79.443 32.7228C81.0494 32.2923 82.3325 31.5311 83.2921 30.4392C84.2517 29.3472 84.8719 28.0593 85.1526 26.5753C85.4202 25.0427 85.3322 23.4488 84.8887 21.7937C84.4322 20.0899 83.7114 18.6655 82.7264 17.5207C81.7413 16.3759 80.5603 15.5706 79.1833 15.1048C77.8062 14.6389 76.3145 14.6212 74.708 15.0517C73.2476 15.443 72.0376 16.1846 71.0779 17.2766C70.1183 18.3685 69.4738 19.663 69.1445 21.16C68.8151 22.657 68.8787 24.2574 69.3353 25.9612Z" fill="white" fill-opacity="0.75"/>
<path d="M113.989 0.996276L114.728 2.72664L114.644 2.59896C114.865 1.80501 115.229 1.13971 115.737 0.603055C116.24 0.0508205 116.92 -0.340084 117.777 -0.569657C118.338 -0.719924 118.849 -0.773518 119.311 -0.730439C119.789 -0.691535 120.218 -0.555958 120.598 -0.323709C120.973 -0.107037 121.28 0.228146 121.518 0.68184L121.408 0.736512C121.673 -0.0190525 122.057 -0.672952 122.56 -1.22519C123.079 -1.78159 123.673 -2.14954 124.343 -2.32903C125.355 -2.60034 126.235 -2.52712 126.981 -2.10935C127.739 -1.71134 128.247 -1.06266 128.504 -0.16332L130.558 7.50097L127.31 8.37126L125.62 2.06224C125.483 1.61466 125.315 1.26737 125.115 1.02036C124.911 0.75777 124.579 0.671423 124.119 0.761316C123.589 0.903234 123.188 1.21122 122.914 1.68526C122.652 2.13955 122.504 2.67994 122.472 3.3064C122.451 3.91312 122.522 4.52025 122.684 5.12778L123.805 9.31043L120.534 10.187L118.843 3.87796C118.707 3.43038 118.523 3.08726 118.292 2.8486C118.072 2.59019 117.733 2.50593 117.273 2.59582C116.758 2.73356 116.372 3.03737 116.114 3.50724C115.868 3.95736 115.726 4.48787 115.689 5.09876C115.668 5.70547 115.737 6.30481 115.895 6.89677L117.029 11.1261L113.757 12.0027L111.021 1.79144L113.989 0.996276ZM130.772 26.3793C129.525 26.7132 128.403 26.7634 127.406 26.5298C126.424 26.292 125.596 25.8208 124.923 25.1163C124.25 24.4117 123.77 23.522 123.482 22.4471C123.206 21.419 123.223 20.4211 123.531 19.4536C123.84 18.486 124.373 17.6418 125.132 16.921C125.886 16.1846 126.809 15.6703 127.899 15.3781C129.363 14.9858 130.678 15.0927 131.842 15.6991C133.017 16.2857 133.96 17.3436 134.671 18.873L127.402 23.5254L126.202 21.9436L131.431 18.464L130.834 18.9493C130.601 18.5777 130.281 18.2877 129.875 18.0794C129.48 17.8513 128.963 17.8228 128.324 17.994C127.842 18.1234 127.444 18.355 127.133 18.6888C126.833 19.0029 126.638 19.3974 126.549 19.8723C126.47 20.3274 126.506 20.8353 126.656 21.3961C126.828 22.0348 127.088 22.541 127.439 22.9145C127.785 23.2725 128.19 23.5063 128.654 23.6158C129.117 23.7254 129.598 23.7134 130.097 23.5798C130.455 23.4838 130.781 23.3297 131.075 23.1174C131.384 22.901 131.675 22.6477 131.948 22.3575L134.048 24.3994C133.586 24.8571 133.061 25.265 132.472 25.623C131.899 25.9769 131.332 26.229 130.772 26.3793Z" fill="#F45B69" fill-opacity="0.25"/>
<path d="M29.8578 232.391C27.6456 230.721 26.0805 228.973 25.1625 227.148C24.3186 225.316 23.8422 223.416 23.7333 221.447L25.9229 220.27L21.5994 225.024L13.153 218.647L53.2854 174.521L61.6715 180.853L39.9522 204.733L42.2411 202.217C44.0329 202.186 46.0478 202.544 48.286 203.291C50.5241 204.037 52.7493 205.246 54.9615 206.916C57.254 208.647 58.8878 210.729 59.8626 213.163C60.8374 215.597 61.0062 218.209 60.3691 220.998C59.8061 223.78 58.2699 226.55 55.7606 229.309C53.2513 232.068 50.4375 233.969 47.3193 235.01C44.2413 236.082 41.1649 236.369 38.09 235.871C35.0151 235.373 32.271 234.213 29.8578 232.391ZM33.9896 224.38C35.2364 225.321 36.654 225.889 38.2423 226.082C39.8708 226.305 41.4816 226.138 43.0746 225.58C44.6676 225.022 46.0576 224.09 47.2444 222.785C48.4312 221.48 49.1607 220.081 49.4327 218.589C49.7048 217.096 49.5521 215.66 48.9748 214.281C48.4716 212.895 47.5966 211.731 46.3497 210.79C45.2638 209.97 44.0855 209.363 42.815 208.97C41.6187 208.57 40.4073 208.41 39.181 208.49C38.0288 208.564 36.8987 208.874 35.7907 209.421L30.3482 215.405C30.0848 216.589 30.0206 217.704 30.1555 218.749C30.3645 219.788 30.7758 220.79 31.3894 221.756C32.0369 222.685 32.9036 223.56 33.9896 224.38Z" fill="#BDDEC2" fill-opacity="0.6"/>
<path d="M7.05673 279.49L85.4786 180.76L86.6469 181.073L105.197 305.787L80.662 299.213L70.754 212.346L88.9059 205.94L27.9408 285.086L7.05673 279.49ZM50.6174 249.526L82.8927 258.174L85.5668 277.987L39.2714 265.582L50.6174 249.526Z" fill="#BDDEC2" fill-opacity="0.6"/>
<path d="M110.97 244.56L119.417 250.936L110.763 262.4L117.158 267.228L112.194 273.805L105.798 268.977L90.7672 288.887L82.3204 282.51L97.3512 262.6L93.2485 259.503L98.2132 252.926L102.316 256.023L110.97 244.56Z" fill="#BDDEC2" fill-opacity="0.6"/>
<path d="M58.6478 250.826C57.7287 250.58 57.0328 250.093 56.5599 249.365C56.0912 248.622 55.9624 247.794 56.1733 246.882L58.2207 239.241L61.492 240.118L59.7702 246.544C59.6803 247.004 59.6991 247.401 59.8265 247.736C59.958 248.055 60.2653 248.279 60.7482 248.409C61.2311 248.538 61.6877 248.485 62.1181 248.25C62.564 248.019 62.9556 247.648 63.2928 247.137C63.6498 246.615 63.9242 245.996 64.1162 245.279L65.2307 241.12L68.5021 241.996L65.766 252.208L62.7984 251.412L63.0422 249.474L63.0326 249.697C62.6863 250.055 62.2901 250.35 61.8442 250.581C61.3982 250.812 60.903 250.946 60.3586 250.984C59.8256 251.042 59.2554 250.989 58.6478 250.826Z" fill="#F6828B" fill-opacity="0.75"/>
<path d="M62.8248 225.173C63.6988 221.911 65.2359 219.193 67.4364 217.017C69.6855 214.854 72.3931 213.415 75.5592 212.698C78.7384 211.932 82.1292 212.032 85.7315 212.997C89.3826 213.975 92.3446 215.578 94.6177 217.804C96.9038 219.982 98.4071 222.55 99.1275 225.509C99.8966 228.48 99.8442 231.597 98.9702 234.858C98.0963 238.12 96.5769 240.869 94.4121 243.107C92.3091 245.309 89.7166 246.805 86.6348 247.597C83.553 248.389 80.1379 248.282 76.3895 247.278C72.8845 246.339 69.9272 244.816 67.5176 242.709C65.1567 240.616 63.5431 238.07 62.6766 235.073C61.8102 232.075 61.8596 228.775 62.8248 225.173ZM73.1012 228.005C72.6577 229.66 72.5941 231.26 72.9104 232.806C73.2398 234.303 73.8842 235.598 74.8439 236.69C75.8035 237.781 77.0135 238.523 78.474 238.914C80.0804 239.345 81.5722 239.327 82.9492 238.861C84.3263 238.396 85.5073 237.59 86.4923 236.445C87.4904 235.252 88.2112 233.828 88.6547 232.172C89.1112 230.469 89.1992 228.875 88.9185 227.391C88.6379 225.907 88.0177 224.619 87.0581 223.527C86.0984 222.435 84.8154 221.674 83.2089 221.243C81.7485 220.852 80.3298 220.889 78.9527 221.355C77.5757 221.821 76.3703 222.62 75.3366 223.752C74.3029 224.883 73.5577 226.301 73.1012 228.005Z" fill="white" fill-opacity="0.75"/>
<path d="M124.255 228.713L124.03 230.581L124.021 230.429C124.61 229.852 125.258 229.458 125.965 229.247C126.677 229.02 127.462 229.021 128.318 229.251C128.879 229.401 129.349 229.611 129.728 229.879C130.122 230.152 130.426 230.484 130.638 230.874C130.855 231.25 130.953 231.693 130.933 232.206L130.81 232.198C131.417 231.676 132.077 231.302 132.789 231.075C133.516 230.852 134.215 230.831 134.885 231.01C135.897 231.282 136.622 231.785 137.06 232.52C137.517 233.243 137.632 234.059 137.406 234.967L135.352 242.631L132.104 241.761L133.795 235.452C133.9 234.996 133.928 234.611 133.879 234.297C133.833 233.968 133.589 233.727 133.146 233.575C132.616 233.433 132.114 233.499 131.64 233.772C131.186 234.035 130.788 234.429 130.446 234.955C130.125 235.47 129.883 236.031 129.72 236.639L128.599 240.822L125.328 239.945L127.018 233.636C127.124 233.18 127.136 232.791 127.056 232.469C126.995 232.135 126.742 231.893 126.299 231.74C125.785 231.603 125.299 231.673 124.84 231.951C124.402 232.217 124.014 232.606 123.676 233.116C123.355 233.631 123.115 234.185 122.956 234.777L121.823 239.006L118.551 238.129L121.288 227.918L124.255 228.713ZM126.098 259.087C124.852 258.753 123.855 258.236 123.108 257.534C122.376 256.838 121.895 256.016 121.665 255.069C121.434 254.122 121.463 253.112 121.751 252.037C122.026 251.009 122.54 250.153 123.29 249.469C124.041 248.785 124.925 248.321 125.943 248.076C126.964 247.815 128.02 247.831 129.111 248.123C130.575 248.516 131.66 249.266 132.365 250.373C133.09 251.469 133.377 252.856 133.228 254.536L124.607 254.931L124.358 252.961L130.626 252.562L129.867 252.684C129.851 252.245 129.719 251.834 129.471 251.451C129.243 251.056 128.81 250.773 128.171 250.601C127.688 250.472 127.229 250.474 126.792 250.608C126.375 250.73 126.009 250.974 125.694 251.34C125.399 251.695 125.176 252.153 125.026 252.714C124.854 253.353 124.827 253.921 124.944 254.42C125.065 254.903 125.299 255.308 125.645 255.635C125.992 255.961 126.415 256.192 126.913 256.325C127.271 256.421 127.631 256.451 127.991 256.414C128.367 256.381 128.746 256.307 129.128 256.192L129.925 259.01C129.296 259.176 128.638 259.267 127.949 259.282C127.276 259.302 126.659 259.237 126.098 259.087Z" fill="#F45B69" fill-opacity="0.25"/>
<path d="M239.814 0.816753L258.365 -123.897L259.533 -124.21L337.955 -25.4799L313.42 -18.9057L261.406 -89.1804L273.923 -103.804L260.699 -4.7791L239.814 0.816753ZM262.557 -46.9134L294.832 -55.5615L307.055 -39.7401L260.759 -27.3353L262.557 -46.9134Z" fill="#BDDEC2" fill-opacity="0.6"/>
<path d="M231.791 129.637C229.579 127.967 228.014 126.219 227.096 124.394C226.252 122.562 225.776 120.662 225.667 118.693L227.857 117.516L223.533 122.27L215.087 115.893L255.219 71.7675L263.605 78.0992L241.886 101.979L244.175 99.4628C245.966 99.4321 247.981 99.7901 250.22 100.537C252.458 101.283 254.683 102.492 256.895 104.162C259.188 105.893 260.821 107.975 261.796 110.409C262.771 112.843 262.94 115.455 262.303 118.244C261.74 121.026 260.204 123.797 257.694 126.556C255.185 129.315 252.371 131.215 249.253 132.256C246.175 133.328 243.098 133.615 240.024 133.117C236.949 132.619 234.205 131.459 231.791 129.637ZM235.923 121.626C237.17 122.567 238.588 123.135 240.176 123.328C241.804 123.551 243.415 123.384 245.008 122.826C246.601 122.268 247.991 121.336 249.178 120.031C250.365 118.726 251.094 117.328 251.366 115.835C251.638 114.342 251.486 112.907 250.908 111.527C250.405 110.141 249.53 108.977 248.283 108.036C247.197 107.216 246.019 106.61 244.749 106.216C243.552 105.816 242.341 105.656 241.115 105.736C239.962 105.81 238.832 106.12 237.724 106.667L232.282 112.651C232.018 113.835 231.954 114.95 232.089 115.996C232.298 117.034 232.709 118.036 233.323 119.002C233.97 119.932 234.837 120.806 235.923 121.626Z" fill="#BDDEC2" fill-opacity="0.6"/>
<path d="M208.99 176.736L287.412 78.0059L288.581 78.319L307.131 203.033L282.596 196.459L272.688 109.592L290.839 103.186L229.874 182.332L208.99 176.736ZM252.551 146.772L284.826 155.42L287.5 175.233L241.205 162.828L252.551 146.772Z" fill="#BDDEC2" fill-opacity="0.6"/>
<path d="M312.904 141.806L321.351 148.183L312.696 159.646L319.092 164.474L314.127 171.051L307.732 166.223L292.701 186.133L284.254 179.756L299.285 159.846L295.182 156.749L300.147 150.172L304.25 153.269L312.904 141.806Z" fill="#BDDEC2" fill-opacity="0.6"/>
<path d="M260.581 148.072C259.662 147.826 258.966 147.339 258.494 146.611C258.025 145.868 257.896 145.04 258.107 144.128L260.154 136.488L263.426 137.364L261.704 143.79C261.614 144.25 261.633 144.647 261.76 144.982C261.892 145.301 262.199 145.525 262.682 145.655C263.165 145.784 263.621 145.731 264.052 145.496C264.498 145.265 264.889 144.894 265.226 144.383C265.583 143.861 265.858 143.242 266.05 142.525L267.164 138.366L270.436 139.242L267.7 149.454L264.732 148.659L264.976 146.72L264.966 146.943C264.62 147.301 264.224 147.596 263.778 147.827C263.332 148.058 262.837 148.192 262.292 148.23C261.759 148.288 261.189 148.235 260.581 148.072Z" fill="#F6828B" fill-opacity="0.75"/>
<path d="M264.758 122.419C265.632 119.158 267.17 116.439 269.37 114.263C271.619 112.101 274.327 110.661 277.493 109.944C280.672 109.178 284.063 109.278 287.665 110.243C291.316 111.222 294.278 112.824 296.551 115.051C298.837 117.228 300.341 119.796 301.061 122.755C301.83 125.726 301.778 128.843 300.904 132.104C300.03 135.366 298.511 138.115 296.346 140.353C294.243 142.555 291.65 144.051 288.568 144.843C285.487 145.635 282.072 145.528 278.323 144.524C274.818 143.585 271.861 142.062 269.451 139.955C267.09 137.862 265.477 135.316 264.61 132.319C263.744 129.321 263.793 126.022 264.758 122.419ZM275.035 125.251C274.591 126.906 274.528 128.507 274.844 130.052C275.173 131.549 275.818 132.844 276.777 133.936C277.737 135.028 278.947 135.769 280.408 136.161C282.014 136.591 283.506 136.573 284.883 136.107C286.26 135.642 287.441 134.836 288.426 133.691C289.424 132.498 290.145 131.074 290.588 129.419C291.045 127.715 291.133 126.121 290.852 124.637C290.571 123.153 289.951 121.865 288.992 120.773C288.032 119.681 286.749 118.92 285.143 118.489C283.682 118.098 282.263 118.135 280.886 118.601C279.509 119.067 278.304 119.866 277.27 120.998C276.236 122.129 275.491 123.547 275.035 125.251Z" fill="white" fill-opacity="0.75"/>
<path d="M326.189 125.959L325.964 127.827L325.954 127.675C326.543 127.098 327.191 126.704 327.899 126.493C328.611 126.266 329.395 126.268 330.252 126.497C330.813 126.647 331.283 126.857 331.662 127.125C332.056 127.398 332.359 127.73 332.572 128.121C332.789 128.496 332.887 128.94 332.866 129.452L332.743 129.444C333.351 128.922 334.01 128.548 334.722 128.321C335.45 128.099 336.148 128.077 336.818 128.257C337.831 128.528 338.556 129.031 338.993 129.766C339.45 130.49 339.566 131.305 339.339 132.213L337.286 139.877L334.038 139.007L335.728 132.698C335.834 132.242 335.862 131.857 335.812 131.543C335.767 131.214 335.523 130.973 335.079 130.821C334.549 130.679 334.048 130.745 333.574 131.019C333.119 131.281 332.721 131.675 332.38 132.201C332.058 132.716 331.816 133.278 331.653 133.885L330.533 138.068L327.261 137.191L328.952 130.882C329.057 130.426 329.07 130.037 328.989 129.715C328.928 129.382 328.676 129.139 328.233 128.986C327.719 128.849 327.232 128.919 326.774 129.197C326.335 129.463 325.947 129.852 325.61 130.362C325.288 130.877 325.048 131.431 324.89 132.023L323.756 136.252L320.485 135.375L323.221 125.164L326.189 125.959ZM328.031 156.333C326.785 155.999 325.789 155.482 325.041 154.781C324.31 154.084 323.829 153.262 323.598 152.315C323.368 151.368 323.397 150.358 323.685 149.283C323.96 148.255 324.473 147.399 325.224 146.715C325.975 146.031 326.859 145.567 327.876 145.322C328.898 145.061 329.954 145.077 331.044 145.369C332.509 145.762 333.593 146.512 334.298 147.619C335.023 148.715 335.311 150.102 335.161 151.782L326.54 152.177L326.292 150.207L332.56 149.808L331.801 149.93C331.785 149.491 331.653 149.08 331.405 148.697C331.177 148.302 330.743 148.019 330.105 147.848C329.622 147.718 329.162 147.72 328.726 147.854C328.309 147.976 327.943 148.22 327.628 148.586C327.332 148.941 327.109 149.399 326.959 149.96C326.788 150.599 326.761 151.167 326.878 151.666C326.999 152.149 327.232 152.554 327.579 152.881C327.926 153.208 328.348 153.438 328.847 153.571C329.205 153.667 329.564 153.697 329.925 153.66C330.301 153.627 330.68 153.553 331.061 153.438L331.859 156.257C331.23 156.422 330.571 156.513 329.882 156.528C329.209 156.548 328.592 156.483 328.031 156.333Z" fill="#F45B69" fill-opacity="0.25"/>
<path d="M433.724 26.8834C431.512 25.2131 429.947 23.4655 429.029 21.6404C428.185 19.8083 427.708 17.9079 427.6 15.9391L429.789 14.7624L425.466 19.5161L417.019 13.1388L457.152 -30.9864L465.538 -24.6547L443.818 -0.774492L446.107 -3.29114C447.899 -3.32181 449.914 -2.96385 452.152 -2.21728C454.39 -1.4707 456.616 -0.262286 458.828 1.40796C461.12 3.13895 462.754 5.22143 463.729 7.65539C464.704 10.0894 464.872 12.7009 464.235 15.4899C463.672 18.2721 462.136 21.0426 459.627 23.8016C457.117 26.5606 454.304 28.4609 451.186 29.5024C448.108 30.5743 445.031 30.8613 441.956 30.3634C438.881 29.8655 436.137 28.7055 433.724 26.8834ZM437.856 18.8721C439.103 19.8135 440.52 20.3807 442.109 20.5737C443.737 20.7971 445.348 20.6298 446.941 20.0718C448.534 19.5137 449.924 18.5822 451.111 17.2773C452.297 15.9724 453.027 14.5736 453.299 13.0811C453.571 11.5885 453.418 10.1526 452.841 8.77344C452.338 7.38733 451.463 6.22357 450.216 5.28216C449.13 4.46222 447.952 3.8556 446.681 3.46232C445.485 3.06212 444.274 2.90216 443.047 2.98244C441.895 3.0558 440.765 3.36595 439.657 3.91288L434.214 9.89691C433.951 11.0816 433.887 12.1965 434.022 13.2416C434.231 14.2798 434.642 15.2821 435.256 16.2485C435.903 17.1776 436.77 18.0521 437.856 18.8721Z" fill="#BDDEC2" fill-opacity="0.6"/>
<path d="M410.923 73.9825L489.345 -24.748L490.513 -24.4349L509.063 100.279L484.528 93.7049L474.62 6.83832L492.772 0.432133L431.807 79.5783L410.923 73.9825ZM454.484 44.0182L486.759 52.6664L489.433 72.4792L443.138 60.0744L454.484 44.0182Z" fill="#BDDEC2" fill-opacity="0.6"/>
<path d="M514.836 39.052L523.283 45.4287L514.629 56.8923L521.025 61.7204L516.06 68.2969L509.664 63.4688L494.633 83.3792L486.187 77.0025L501.217 57.092L497.115 53.9948L502.079 47.4183L506.182 50.5155L514.836 39.052Z" fill="#BDDEC2" fill-opacity="0.6"/>
<path d="M462.514 45.3184C461.595 45.0721 460.899 44.5851 460.426 43.8574C459.957 43.114 459.829 42.2864 460.04 41.3745L462.087 33.7336L465.358 34.6102L463.636 41.036C463.547 41.4961 463.565 41.8935 463.693 42.2282C463.824 42.5473 464.131 42.7715 464.614 42.9009C465.097 43.0303 465.554 42.9773 465.984 42.742C466.43 42.5109 466.822 42.14 467.159 41.6293C467.516 41.1072 467.79 40.4878 467.982 39.7712L469.097 35.6119L472.368 36.4885L469.632 46.6998L466.665 45.9046L466.908 43.9664L466.899 44.1892C466.552 44.5472 466.156 44.8418 465.71 45.0729C465.264 45.304 464.769 45.4385 464.225 45.4763C463.692 45.5338 463.122 45.4812 462.514 45.3184Z" fill="#F6828B" fill-opacity="0.75"/>
<path d="M466.691 19.6653C467.565 16.4037 469.102 13.685 471.303 11.5093C473.552 9.34661 476.259 7.90681 479.425 7.1899C482.605 6.4243 485.995 6.52413 489.598 7.48938C493.249 8.46768 496.211 10.0701 498.484 12.2966C500.77 14.4744 502.273 17.0425 502.994 20.0009C503.763 22.9723 503.71 26.0888 502.836 29.3504C501.963 32.612 500.443 35.3615 498.278 37.599C496.175 39.8008 493.583 41.2975 490.501 42.0892C487.419 42.8809 484.004 42.7745 480.256 41.7702C476.751 40.831 473.793 39.3081 471.384 37.2016C469.023 35.108 467.409 32.5625 466.543 29.565C465.676 26.5676 465.726 23.2676 466.691 19.6653ZM476.967 22.4971C476.524 24.1522 476.46 25.7526 476.777 27.2983C477.106 28.7953 477.75 30.0898 478.71 31.1817C479.67 32.2737 480.88 33.0153 482.34 33.4066C483.947 33.8371 485.438 33.8194 486.815 33.3535C488.192 32.8877 489.374 32.0824 490.359 30.9376C491.357 29.7441 492.077 28.3198 492.521 26.6646C492.977 24.9608 493.065 23.3669 492.785 21.883C492.504 20.399 491.884 19.1111 490.924 18.0191C489.965 16.9272 488.682 16.166 487.075 15.7355C485.615 15.3442 484.196 15.3815 482.819 15.8473C481.442 16.3131 480.237 17.1119 479.203 18.2437C478.169 19.3755 477.424 20.7933 476.967 22.4971Z" fill="white" fill-opacity="0.75"/>
<path d="M528.121 23.2055L527.896 25.0736L527.887 24.9208C528.476 24.3439 529.124 23.95 529.832 23.7389C530.544 23.5122 531.328 23.5137 532.185 23.7432C532.745 23.8935 533.215 24.1029 533.594 24.3714C533.989 24.644 534.292 24.9758 534.505 25.3666C534.721 25.7419 534.819 26.1856 534.799 26.6978L534.676 26.6898C535.283 26.168 535.943 25.7938 536.655 25.5671C537.382 25.3446 538.081 25.3231 538.751 25.5026C539.763 25.7739 540.488 26.2771 540.926 27.0121C541.383 27.7357 541.498 28.5513 541.272 29.459L539.218 37.1233L535.97 36.253L537.661 29.944C537.766 29.488 537.794 29.1032 537.745 28.7894C537.7 28.46 537.455 28.2192 537.012 28.067C536.482 27.9251 535.98 27.991 535.506 28.2647C535.052 28.527 534.654 28.9213 534.313 29.4475C533.991 29.9624 533.749 30.5236 533.586 31.1312L532.465 35.3138L529.194 34.4373L530.884 28.1283C530.99 27.6723 531.002 27.2833 530.922 26.9611C530.861 26.6276 530.609 26.3847 530.165 26.2325C529.651 26.0948 529.165 26.1648 528.706 26.4427C528.268 26.7092 527.88 27.0978 527.543 27.6085C527.221 28.1234 526.981 28.6768 526.822 29.2687L525.689 33.4981L522.418 32.6216L525.154 22.4103L528.121 23.2055ZM529.964 53.5791C528.718 53.2452 527.721 52.7277 526.974 52.0266C526.242 51.3297 525.761 50.5079 525.531 49.5612C525.3 48.6146 525.329 47.6038 525.617 46.5289C525.893 45.5008 526.406 44.6449 527.157 43.9612C527.908 43.2775 528.792 42.8131 529.809 42.5681C530.83 42.3075 531.886 42.3234 532.977 42.6155C534.441 43.0079 535.526 43.7577 536.231 44.8649C536.956 45.9607 537.244 47.3485 537.094 49.0281L528.473 49.423L528.225 47.453L534.492 47.0538L533.733 47.176C533.717 46.7376 533.585 46.3265 533.338 45.9429C533.109 45.5479 532.676 45.2648 532.037 45.0936C531.554 44.9642 531.095 44.9663 530.658 45.0998C530.242 45.2219 529.876 45.4661 529.56 45.8324C529.265 46.1874 529.042 46.6452 528.892 47.206C528.721 47.8447 528.694 48.4135 528.81 48.9122C528.931 49.3955 529.165 49.8004 529.512 50.127C529.858 50.4536 530.281 50.6837 530.779 50.8173C531.138 50.9133 531.497 50.9428 531.857 50.9058C532.234 50.873 532.612 50.7992 532.994 50.6843L533.791 53.5027C533.163 53.6681 532.504 53.7588 531.815 53.7746C531.142 53.7945 530.525 53.7294 529.964 53.5791Z" fill="#F45B69" fill-opacity="0.25"/>
<path d="M437.944 256.887C435.193 256.547 432.963 255.816 431.256 254.694C429.609 253.53 428.246 252.122 427.168 250.471L428.475 248.357L427.108 254.636L416.605 253.336L429.298 195.057L439.726 196.347L432.857 227.887L433.581 224.564C435.117 223.641 437.041 222.944 439.353 222.471C441.664 221.999 444.195 221.933 446.946 222.273C449.797 222.626 452.253 223.612 454.315 225.233C456.376 226.853 457.828 229.03 458.67 231.764C459.574 234.455 459.629 237.623 458.835 241.267C458.042 244.911 456.555 247.963 454.375 250.425C452.246 252.892 449.725 254.679 446.813 255.785C443.901 256.891 440.945 257.258 437.944 256.887ZM437.516 247.883C439.067 248.075 440.578 247.858 442.05 247.231C443.572 246.61 444.883 245.659 445.984 244.38C447.084 243.1 447.822 241.598 448.198 239.875C448.573 238.151 448.506 236.575 447.995 235.146C447.484 233.718 446.634 232.551 445.444 231.645C444.316 230.696 442.976 230.126 441.425 229.934C440.075 229.767 438.751 229.831 437.454 230.125C436.218 230.377 435.089 230.844 434.067 231.527C433.106 232.166 432.283 233 431.596 234.028L429.875 241.931C430.239 243.089 430.741 244.086 431.381 244.924C432.081 245.719 432.938 246.381 433.953 246.911C434.978 247.392 436.166 247.716 437.516 247.883Z" fill="#BDDEC2" fill-opacity="0.6"/>
<path d="M441.747 309.077L460.297 184.363L461.466 184.049L539.887 282.78L515.352 289.354L463.338 219.079L475.855 204.455L462.631 303.481L441.747 309.077ZM464.49 261.346L496.765 252.698L508.987 268.52L462.692 280.924L464.49 261.346Z" fill="#BDDEC2" fill-opacity="0.6"/>
<path d="M514.274 226.87L524.778 228.169L523.015 242.424L530.967 243.407L529.956 251.585L522.003 250.601L518.942 275.36L508.438 274.061L511.5 249.302L506.398 248.672L507.41 240.494L512.511 241.125L514.274 226.87Z" fill="#BDDEC2" fill-opacity="0.6"/>
<path d="M472.094 258.458C471.175 258.704 470.329 258.63 469.556 258.236C468.778 257.827 468.253 257.175 467.98 256.28L465.932 248.639L469.204 247.762L470.925 254.188C471.078 254.631 471.292 254.966 471.57 255.192C471.844 255.403 472.222 255.443 472.705 255.314C473.188 255.185 473.557 254.91 473.812 254.491C474.082 254.068 474.236 253.551 474.273 252.94C474.321 252.31 474.249 251.636 474.057 250.92L472.942 246.76L476.214 245.884L478.95 256.095L475.982 256.89L475.224 255.09L475.327 255.288C475.206 255.771 475.01 256.224 474.74 256.647C474.469 257.07 474.108 257.434 473.655 257.739C473.222 258.055 472.702 258.295 472.094 258.458Z" fill="#F6828B" fill-opacity="0.75"/>
<path d="M462.886 234.153C462.012 230.891 461.984 227.768 462.802 224.784C463.668 221.786 465.293 219.186 467.677 216.982C470.047 214.729 473.033 213.12 476.636 212.155C480.287 211.177 483.653 211.083 486.735 211.875C489.804 212.618 492.39 214.09 494.493 216.292C496.645 218.481 498.157 221.206 499.031 224.468C499.905 227.729 499.964 230.87 499.208 233.89C498.488 236.849 496.991 239.441 494.718 241.668C492.445 243.894 489.434 245.51 485.686 246.514C482.181 247.453 478.858 247.613 475.718 246.993C472.627 246.361 469.957 244.963 467.707 242.8C465.458 240.638 463.851 237.755 462.886 234.153ZM473.201 231.467C473.645 233.122 474.39 234.54 475.437 235.72C476.471 236.852 477.676 237.651 479.053 238.117C480.43 238.583 481.849 238.62 483.309 238.229C484.916 237.798 486.199 237.037 487.158 235.945C488.118 234.853 488.738 233.565 489.019 232.081C489.286 230.549 489.198 228.955 488.755 227.3C488.298 225.596 487.578 224.171 486.593 223.027C485.608 221.882 484.427 221.076 483.049 220.611C481.672 220.145 480.181 220.127 478.574 220.558C477.114 220.949 475.904 221.69 474.944 222.782C473.985 223.874 473.34 225.169 473.011 226.666C472.681 228.163 472.745 229.763 473.201 231.467Z" fill="white" fill-opacity="0.75"/>
<path d="M517.855 206.502L518.594 208.233L518.51 208.105C518.731 207.311 519.096 206.646 519.603 206.109C520.106 205.557 520.786 205.166 521.643 204.936C522.204 204.786 522.715 204.732 523.178 204.775C523.656 204.814 524.084 204.95 524.464 205.182C524.839 205.399 525.146 205.734 525.384 206.188L525.274 206.242C525.539 205.487 525.923 204.833 526.426 204.281C526.945 203.724 527.539 203.356 528.209 203.177C529.222 202.906 530.101 202.979 530.847 203.397C531.605 203.795 532.113 204.443 532.371 205.343L534.424 213.007L531.176 213.877L529.486 207.568C529.349 207.121 529.181 206.773 528.981 206.526C528.777 206.264 528.445 206.177 527.985 206.267C527.456 206.409 527.054 206.717 526.78 207.191C526.518 207.645 526.371 208.186 526.338 208.812C526.317 209.419 526.388 210.026 526.551 210.634L527.671 214.816L524.4 215.693L522.709 209.384C522.573 208.936 522.389 208.593 522.158 208.354C521.939 208.096 521.599 208.012 521.139 208.102C520.625 208.239 520.239 208.543 519.98 209.013C519.734 209.463 519.592 209.994 519.555 210.605C519.534 211.211 519.603 211.811 519.762 212.403L520.895 216.632L517.624 217.509L514.888 207.297L517.855 206.502ZM534.638 231.885C533.392 232.219 532.27 232.269 531.272 232.036C530.29 231.798 529.463 231.327 528.79 230.622C528.117 229.918 527.636 229.028 527.348 227.953C527.073 226.925 527.089 225.927 527.398 224.959C527.706 223.992 528.239 223.148 528.998 222.427C529.752 221.69 530.675 221.176 531.765 220.884C533.23 220.492 534.544 220.599 535.708 221.205C536.884 221.792 537.827 222.85 538.537 224.379L531.269 229.031L530.068 227.449L535.297 223.97L534.701 224.455C534.467 224.084 534.148 223.794 533.741 223.585C533.346 223.357 532.829 223.329 532.191 223.5C531.708 223.629 531.311 223.861 530.999 224.195C530.7 224.509 530.505 224.903 530.415 225.378C530.336 225.833 530.372 226.341 530.523 226.902C530.694 227.541 530.955 228.047 531.305 228.42C531.652 228.778 532.056 229.012 532.52 229.122C532.983 229.231 533.464 229.219 533.963 229.086C534.321 228.99 534.647 228.836 534.941 228.623C535.25 228.407 535.541 228.154 535.814 227.863L537.914 229.905C537.452 230.363 536.927 230.771 536.339 231.129C535.766 231.483 535.199 231.735 534.638 231.885Z" fill="#F45B69" fill-opacity="0.25"/>
</g>
<defs>
<clipPath id="clip0_308_3213">
<rect width="548" height="267" fill="white"/>
</clipPath>
</defs>
</svg>
