<svg width="263" height="141" viewBox="0 0 263 141" fill="none" xmlns="http://www.w3.org/2000/svg">
<g opacity="0.85" clip-path="url(#clip0_308_2867)">
<rect width="263" height="141" fill="#FFFEF1"/>
<path d="M16.357 0.74663L26.1531 -65.1136L26.7701 -65.2789L68.1839 -13.1403L55.2271 -9.6686L27.7591 -46.78L34.3692 -54.5027L27.3856 -2.20849L16.357 0.74663ZM28.367 -24.4592L45.4113 -29.0262L51.8657 -20.671L27.4176 -14.1202L28.367 -24.4592Z" fill="#BDDEC2" fill-opacity="0.6"/>
<path d="M11.9371 68.5665C10.7689 67.6844 9.94243 66.7615 9.45763 65.7977C9.01198 64.8302 8.7604 63.8266 8.7029 62.7869L9.8592 62.1655L7.576 64.6759L3.11553 61.3081L24.3091 38.006L28.7377 41.3497L17.2679 53.9606L18.4767 52.6316C19.4229 52.6154 20.487 52.8044 21.6689 53.1987C22.8508 53.593 24.0259 54.2311 25.1941 55.1132C26.4048 56.0273 27.2676 57.127 27.7824 58.4124C28.2972 59.6977 28.3863 61.0768 28.0499 62.5497C27.7526 64.0189 26.9413 65.482 25.6162 66.939C24.291 68.396 22.8051 69.3995 21.1584 69.9496C19.5329 70.5156 17.9083 70.6672 16.2845 70.4042C14.6607 70.1413 13.2116 69.5287 11.9371 68.5665ZM14.1191 64.3358C14.7776 64.8329 15.5262 65.1325 16.3649 65.2344C17.2249 65.3524 18.0756 65.264 18.9168 64.9693C19.7581 64.6746 20.4921 64.1827 21.1189 63.4936C21.7456 62.8045 22.1308 62.0658 22.2745 61.2776C22.4181 60.4894 22.3375 59.7311 22.0327 59.0028C21.7669 58.2708 21.3048 57.6562 20.6464 57.1591C20.0729 56.7261 19.4507 56.4057 18.7798 56.198C18.148 55.9867 17.5083 55.9022 16.8607 55.9446C16.2522 55.9834 15.6554 56.1471 15.0703 56.436L12.1961 59.5961C12.057 60.2217 12.0231 60.8105 12.0944 61.3624C12.2047 61.9107 12.4219 62.44 12.746 62.9503C13.0879 63.4409 13.5456 63.9028 14.1191 64.3358Z" fill="#BDDEC2" fill-opacity="0.6"/>
<path d="M-0.0890138 93.6469L41.3248 41.5083L41.9418 41.6737L51.7379 107.534L38.7812 104.062L33.5489 58.1887L43.1347 54.8057L10.9396 96.602L-0.0890138 93.6469ZM22.9149 77.8231L39.9592 82.3901L41.3713 92.853L16.9232 86.3022L22.9149 77.8231Z" fill="#BDDEC2" fill-opacity="0.6"/>
<path d="M54.9311 74.8056L59.3918 78.1731L54.8216 84.2269L58.199 86.7766L55.5772 90.2495L52.1998 87.6999L44.2621 98.2144L39.8014 94.8469L47.7391 84.3324L45.5725 82.6967L48.1943 79.2238L50.3609 80.8594L54.9311 74.8056Z" fill="#BDDEC2" fill-opacity="0.6"/>
<path d="M27.1123 78.6734C26.627 78.5434 26.2594 78.2862 26.0097 77.9019C25.7622 77.5093 25.6942 77.0723 25.8056 76.5907L26.8868 72.5556L28.6143 73.0185L27.7051 76.412C27.6576 76.6549 27.6675 76.8648 27.7348 77.0415C27.8042 77.21 27.9665 77.3285 28.2215 77.3968C28.4765 77.4651 28.7177 77.4372 28.945 77.3129C29.1805 77.1908 29.3872 76.995 29.5653 76.7253C29.7538 76.4495 29.8988 76.1225 30.0002 75.744L30.5887 73.5476L32.3163 74.0105L30.8714 79.4029L29.3042 78.983L29.433 77.9595L29.4279 78.0771C29.245 78.2662 29.0358 78.4217 28.8003 78.5438C28.5648 78.6659 28.3033 78.7369 28.0158 78.7568C27.7343 78.7872 27.4332 78.7594 27.1123 78.6734Z" fill="#F6828B" fill-opacity="0.75"/>
<path d="M29.4723 64.551C29.9338 62.8285 30.7456 61.3928 31.9076 60.2439C33.0954 59.1018 34.5252 58.3414 36.1972 57.9628C37.8761 57.5585 39.6667 57.6113 41.5691 58.121C43.4972 58.6376 45.0614 59.4838 46.2618 60.6596C47.4691 61.8097 48.263 63.1659 48.6434 64.7282C49.0495 66.2974 49.0219 67.9432 48.5603 69.6656C48.0988 71.388 47.2964 72.84 46.1532 74.0216C45.0426 75.1843 43.6736 75.9747 42.0461 76.3928C40.4187 76.8109 38.6152 76.7547 36.6357 76.2243C34.7847 75.7284 33.223 74.9241 31.9505 73.8117C30.7038 72.7061 29.8516 71.3619 29.394 69.7789C28.9365 68.196 28.9626 66.4533 29.4723 64.551ZM34.8992 66.0464C34.665 66.9205 34.6314 67.7656 34.7984 68.5819C34.9723 69.3724 35.3127 70.056 35.8195 70.6327C36.3262 71.2093 36.9652 71.601 37.7365 71.8076C38.5848 72.0349 39.3726 72.0256 40.0998 71.7796C40.827 71.5336 41.4507 71.1083 41.9709 70.5037C42.498 69.8735 42.8786 69.1213 43.1128 68.2472C43.3539 67.3475 43.4003 66.5058 43.2521 65.7221C43.1039 64.9384 42.7764 64.2583 42.2696 63.6816C41.7629 63.105 41.0853 62.703 40.2369 62.4757C39.4657 62.269 38.7165 62.2887 37.9893 62.5347C37.2621 62.7807 36.6255 63.2026 36.0796 63.8002C35.5338 64.3979 35.1403 65.1466 34.8992 66.0464Z" fill="white" fill-opacity="0.75"/>
<path d="M61.8659 66.5919L61.7471 67.5784L61.7422 67.4978C62.0531 67.1931 62.3954 66.985 62.7692 66.8736C63.1451 66.7539 63.5593 66.7547 64.0118 66.8759C64.3079 66.9552 64.556 67.0658 64.7561 67.2076C64.9644 67.3516 65.1247 67.5268 65.2369 67.7332C65.3513 67.9314 65.4031 68.1657 65.3924 68.4361L65.3274 68.4319C65.6481 68.1564 65.9964 67.9587 66.3724 67.8391C66.7565 67.7216 67.1255 67.7102 67.4792 67.805C68.014 67.9483 68.3968 68.214 68.6279 68.6021C68.8694 68.9842 68.9303 69.415 68.8107 69.8943L67.7262 73.9417L66.0109 73.4822L66.9037 70.1504C66.9594 69.9097 66.9742 69.7064 66.948 69.5407C66.9241 69.3668 66.795 69.2396 66.5609 69.1592C66.2812 69.0843 66.0162 69.1191 65.7658 69.2636C65.5259 69.4021 65.3158 69.6103 65.1355 69.8883C64.9657 70.1602 64.8378 70.4565 64.7518 70.7774L64.16 72.9862L62.4324 72.5233L63.3251 69.1916C63.3808 68.9508 63.3874 68.7453 63.3448 68.5752C63.3127 68.3991 63.1795 68.2708 62.9453 68.1904C62.6739 68.1177 62.4171 68.1547 62.175 68.3014C61.9433 68.4422 61.7384 68.6474 61.5603 68.9171C61.3905 69.189 61.2637 69.4812 61.1799 69.7938L60.5815 72.0273L58.8539 71.5644L60.2988 66.172L61.8659 66.5919ZM62.7111 83.1094C62.053 82.9331 61.5267 82.6598 61.1321 82.2896C60.7458 81.9216 60.4918 81.4876 60.37 80.9876C60.2483 80.4877 60.2635 79.9539 60.4156 79.3863C60.561 78.8434 60.832 78.3914 61.2286 78.0303C61.6251 77.6692 62.092 77.424 62.6292 77.2946C63.1687 77.157 63.7263 77.1654 64.3022 77.3197C65.0755 77.5269 65.6483 77.9228 66.0206 78.5076C66.4034 79.0863 66.5553 79.8191 66.4764 80.7061L61.9238 80.9146L61.7925 79.8743L65.1025 79.6635L64.7017 79.728C64.6932 79.4965 64.6235 79.2794 64.4926 79.0768C64.3722 78.8682 64.1433 78.7187 63.806 78.6284C63.551 78.56 63.3083 78.5611 63.0778 78.6316C62.8577 78.6961 62.6644 78.825 62.498 79.0185C62.3419 79.2059 62.2242 79.4477 62.1449 79.7439C62.0545 80.0812 62.0402 80.3815 62.1018 80.6449C62.1657 80.9001 62.2892 81.1139 62.4722 81.2864C62.6552 81.4589 62.8784 81.5804 63.1416 81.6509C63.3308 81.7016 63.5206 81.7172 63.711 81.6977C63.9096 81.6804 64.1097 81.6414 64.3111 81.5807L64.7323 83.0691C64.4002 83.1565 64.0524 83.2043 63.6886 83.2127C63.3331 83.2232 63.0073 83.1888 62.7111 83.1094Z" fill="#F45B69" fill-opacity="0.25"/>
<path d="M118.576 14.3047C117.408 13.4227 116.581 12.4998 116.096 11.536C115.651 10.5685 115.399 9.5649 115.342 8.52519L116.498 7.90379L114.215 10.4142L109.754 7.04636L130.948 -16.2557L135.376 -12.912L123.907 -0.301096L125.115 -1.63011C126.062 -1.64631 127.126 -1.45728 128.308 -1.06302C129.49 -0.668757 130.665 -0.0306056 131.833 0.851437C133.044 1.76555 133.906 2.86529 134.421 4.15064C134.936 5.43599 135.025 6.8151 134.689 8.28798C134.391 9.7572 133.58 11.2203 132.255 12.6773C130.93 14.1343 129.444 15.1378 127.797 15.6878C126.172 16.2539 124.547 16.4055 122.923 16.1425C121.299 15.8796 119.85 15.267 118.576 14.3047ZM120.758 10.074C121.416 10.5712 122.165 10.8707 123.004 10.9727C123.864 11.0907 124.714 11.0023 125.555 10.7076C126.397 10.4129 127.131 9.92098 127.758 9.23186C128.384 8.54274 128.769 7.80408 128.913 7.01588C129.057 6.22768 128.976 5.46941 128.671 4.74107C128.406 4.00908 127.944 3.39451 127.285 2.89736C126.712 2.46436 126.089 2.14401 125.418 1.93632C124.787 1.72498 124.147 1.64051 123.499 1.6829C122.891 1.72164 122.294 1.88543 121.709 2.17426L118.835 5.33436C118.696 5.95997 118.662 6.54874 118.733 7.10067C118.843 7.64895 119.061 8.17825 119.385 8.68858C119.727 9.17922 120.184 9.64104 120.758 10.074Z" fill="#BDDEC2" fill-opacity="0.6"/>
<path d="M106.55 39.3852L147.963 -12.7534L148.58 -12.5881L158.377 53.2721L145.42 49.8004L140.188 3.92702L149.773 0.543978L117.578 42.3403L106.55 39.3852ZM129.554 23.5613L146.598 28.1283L148.01 38.5913L123.562 32.0405L129.554 23.5613Z" fill="#BDDEC2" fill-opacity="0.6"/>
<path d="M161.57 20.5439L166.03 23.9114L161.46 29.9652L164.838 32.5148L162.216 35.9878L158.838 33.4381L150.901 43.9527L146.44 40.5852L154.378 30.0707L152.211 28.435L154.833 24.9621L157 26.5977L161.57 20.5439Z" fill="#BDDEC2" fill-opacity="0.6"/>
<path d="M133.751 24.4117C133.266 24.2817 132.898 24.0245 132.648 23.6402C132.401 23.2476 132.333 22.8106 132.444 22.329L133.525 18.2939L135.253 18.7568L134.344 22.1502C134.296 22.3932 134.306 22.6031 134.373 22.7798C134.443 22.9483 134.605 23.0667 134.86 23.1351C135.115 23.2034 135.356 23.1754 135.584 23.0512C135.819 22.9291 136.026 22.7332 136.204 22.4635C136.392 22.1878 136.537 21.8607 136.639 21.4823L137.227 19.2858L138.955 19.7487L137.51 25.1412L135.943 24.7213L136.072 23.6977L136.067 23.8154C135.884 24.0045 135.674 24.16 135.439 24.2821C135.203 24.4041 134.942 24.4751 134.654 24.4951C134.373 24.5255 134.072 24.4977 133.751 24.4117Z" fill="#F6828B" fill-opacity="0.75"/>
<path d="M136.111 10.2892C136.572 8.56681 137.384 7.13112 138.546 5.98214C139.734 4.84006 141.164 4.07972 142.836 3.70112C144.515 3.29682 146.305 3.34954 148.208 3.85928C150.136 4.3759 151.7 5.22212 152.9 6.39792C154.108 7.54802 154.902 8.9042 155.282 10.4665C155.688 12.0356 155.661 13.6814 155.199 15.4039C154.737 17.1263 153.935 18.5783 152.792 19.7598C151.681 20.9226 150.312 21.713 148.685 22.1311C147.057 22.5492 145.254 22.493 143.274 21.9626C141.423 21.4666 139.862 20.6624 138.589 19.55C137.342 18.4444 136.49 17.1002 136.033 15.5172C135.575 13.9343 135.601 12.1916 136.111 10.2892ZM141.538 11.7847C141.304 12.6588 141.27 13.5039 141.437 14.3202C141.611 15.1107 141.951 15.7943 142.458 16.371C142.965 16.9476 143.604 17.3393 144.375 17.5459C145.223 17.7732 146.011 17.7639 146.738 17.5179C147.466 17.2719 148.089 16.8466 148.61 16.242C149.137 15.6118 149.517 14.8596 149.751 13.9855C149.993 13.0858 150.039 12.244 149.891 11.4604C149.743 10.6767 149.415 9.99657 148.908 9.41992C148.402 8.84328 147.724 8.4413 146.876 8.21398C146.104 8.00733 145.355 8.027 144.628 8.27301C143.901 8.51901 143.264 8.94085 142.718 9.53852C142.172 10.1362 141.779 10.8849 141.538 11.7847Z" fill="white" fill-opacity="0.75"/>
<path d="M168.505 12.3302L168.386 13.3167L168.381 13.236C168.692 12.9314 169.034 12.7233 169.408 12.6119C169.784 12.4922 170.198 12.4929 170.65 12.6142C170.947 12.6935 171.195 12.8041 171.395 12.9459C171.603 13.0899 171.763 13.2651 171.876 13.4715C171.99 13.6696 172.042 13.904 172.031 14.1744L171.966 14.1702C172.287 13.8947 172.635 13.697 173.011 13.5773C173.395 13.4598 173.764 13.4485 174.118 13.5433C174.653 13.6866 175.036 13.9523 175.267 14.3404C175.508 14.7225 175.569 15.1533 175.449 15.6326L174.365 19.68L172.65 19.2204L173.542 15.8887C173.598 15.6479 173.613 15.4447 173.587 15.279C173.563 15.105 173.434 14.9779 173.2 14.8975C172.92 14.8226 172.655 14.8574 172.404 15.0019C172.165 15.1404 171.954 15.3486 171.774 15.6266C171.604 15.8985 171.476 16.1948 171.391 16.5157L170.799 18.7245L169.071 18.2616L169.964 14.9298C170.02 14.6891 170.026 14.4836 169.983 14.3135C169.951 14.1374 169.818 14.0091 169.584 13.9287C169.313 13.856 169.056 13.893 168.814 14.0397C168.582 14.1804 168.377 14.3856 168.199 14.6553C168.029 14.9273 167.902 15.2195 167.819 15.5321L167.22 17.7656L165.493 17.3027L166.937 11.9102L168.505 12.3302ZM169.35 28.8477C168.692 28.6714 168.165 28.3981 167.771 28.0279C167.384 27.6598 167.13 27.2259 167.009 26.7259C166.887 26.226 166.902 25.6922 167.054 25.1246C167.2 24.5816 167.471 24.1296 167.867 23.7686C168.264 23.4075 168.731 23.1623 169.268 23.0329C169.807 22.8953 170.365 22.9037 170.941 23.058C171.714 23.2652 172.287 23.6611 172.659 24.2458C173.042 24.8245 173.194 25.5574 173.115 26.4444L168.562 26.6529L168.431 25.6126L171.741 25.4018L171.34 25.4663C171.332 25.2348 171.262 25.0177 171.131 24.8151C171.011 24.6065 170.782 24.457 170.445 24.3666C170.19 24.2983 169.947 24.2994 169.716 24.3699C169.496 24.4343 169.303 24.5633 169.137 24.7568C168.981 24.9442 168.863 25.186 168.784 25.4822C168.693 25.8194 168.679 26.1198 168.741 26.3832C168.804 26.6384 168.928 26.8522 169.111 27.0247C169.294 27.1972 169.517 27.3187 169.78 27.3892C169.97 27.4399 170.159 27.4555 170.35 27.436C170.548 27.4187 170.748 27.3797 170.95 27.319L171.371 28.8074C171.039 28.8947 170.691 28.9426 170.327 28.9509C169.972 28.9615 169.646 28.9271 169.35 28.8477Z" fill="#F45B69" fill-opacity="0.25"/>
<path d="M120.872 135.803C119.419 135.624 118.242 135.238 117.34 134.645C116.47 134.03 115.751 133.287 115.181 132.415L115.872 131.299L115.149 134.615L109.603 133.928L116.306 103.151L121.813 103.833L118.185 120.489L118.568 118.734C119.379 118.246 120.395 117.878 121.616 117.629C122.836 117.379 124.173 117.344 125.626 117.524C127.131 117.71 128.428 118.231 129.517 119.087C130.605 119.943 131.372 121.093 131.817 122.536C132.294 123.957 132.323 125.63 131.904 127.554C131.485 129.479 130.7 131.091 129.549 132.391C128.424 133.693 127.093 134.637 125.555 135.221C124.018 135.805 122.456 135.999 120.872 135.803ZM120.646 131.049C121.465 131.15 122.263 131.035 123.04 130.704C123.844 130.376 124.536 129.874 125.118 129.198C125.699 128.522 126.088 127.729 126.287 126.819C126.485 125.909 126.449 125.077 126.18 124.322C125.91 123.568 125.461 122.952 124.833 122.473C124.237 121.972 123.529 121.671 122.71 121.57C121.997 121.481 121.298 121.515 120.613 121.671C119.96 121.804 119.364 122.05 118.825 122.411C118.317 122.749 117.882 123.189 117.52 123.731L116.611 127.905C116.803 128.517 117.068 129.043 117.406 129.486C117.775 129.905 118.228 130.255 118.764 130.535C119.305 130.789 119.933 130.96 120.646 131.049Z" fill="#BDDEC2" fill-opacity="0.6"/>
<path d="M122.996 163.536L132.792 97.6755L133.409 97.5102L174.823 149.649L161.866 153.12L134.398 116.009L141.008 108.286L134.024 160.581L122.996 163.536ZM135.006 138.33L152.05 133.763L158.504 142.118L134.056 148.669L135.006 138.33Z" fill="#BDDEC2" fill-opacity="0.6"/>
<path d="M161.225 119.709L166.771 120.394L165.841 127.922L170.04 128.442L169.506 132.76L165.306 132.241L163.689 145.316L158.143 144.63L159.76 131.555L157.065 131.222L157.6 126.903L160.294 127.236L161.225 119.709Z" fill="#BDDEC2" fill-opacity="0.6"/>
<path d="M139.066 136.966C138.581 137.096 138.134 137.057 137.726 136.849C137.315 136.633 137.038 136.289 136.893 135.816L135.812 131.781L137.54 131.318L138.449 134.711C138.529 134.945 138.643 135.122 138.789 135.242C138.934 135.353 139.133 135.374 139.389 135.306C139.644 135.238 139.838 135.093 139.973 134.872C140.116 134.648 140.197 134.375 140.216 134.052C140.242 133.719 140.204 133.364 140.102 132.985L139.514 130.789L141.242 130.326L142.686 135.718L141.119 136.138L140.719 135.187L140.773 135.292C140.71 135.547 140.606 135.786 140.463 136.01C140.32 136.233 140.129 136.426 139.89 136.587C139.662 136.754 139.387 136.88 139.066 136.966Z" fill="#F6828B" fill-opacity="0.75"/>
<path d="M134.048 123.557C133.587 121.834 133.572 120.185 134.004 118.609C134.461 117.026 135.319 115.653 136.578 114.489C137.83 113.299 139.407 112.45 141.309 111.94C143.237 111.423 145.015 111.374 146.643 111.792C148.263 112.184 149.629 112.962 150.74 114.125C151.876 115.281 152.675 116.72 153.136 118.442C153.598 120.164 153.629 121.823 153.23 123.418C152.849 124.98 152.059 126.349 150.858 127.525C149.658 128.701 148.068 129.554 146.089 130.084C144.238 130.58 142.483 130.665 140.825 130.338C139.192 130.004 137.782 129.265 136.594 128.123C135.407 126.981 134.558 125.459 134.048 123.557ZM139.496 122.138C139.73 123.012 140.123 123.761 140.676 124.385C141.222 124.982 141.859 125.404 142.586 125.65C143.313 125.896 144.062 125.916 144.834 125.709C145.682 125.482 146.359 125.08 146.866 124.503C147.373 123.926 147.701 123.246 147.849 122.463C147.99 121.653 147.944 120.812 147.709 119.938C147.468 119.038 147.088 118.286 146.567 117.681C146.047 117.076 145.424 116.651 144.696 116.405C143.969 116.159 143.181 116.15 142.333 116.377C141.562 116.584 140.923 116.975 140.416 117.552C139.909 118.129 139.569 118.812 139.395 119.603C139.221 120.393 139.255 121.239 139.496 122.138Z" fill="white" fill-opacity="0.75"/>
<path d="M163.124 109.129L163.514 110.043L163.47 109.975C163.587 109.556 163.779 109.205 164.047 108.921C164.313 108.629 164.672 108.423 165.124 108.302C165.421 108.222 165.691 108.194 165.935 108.217C166.187 108.237 166.414 108.309 166.614 108.432C166.812 108.546 166.974 108.723 167.1 108.963L167.042 108.992C167.182 108.593 167.385 108.247 167.65 107.956C167.924 107.662 168.238 107.468 168.592 107.373C169.127 107.229 169.591 107.268 169.985 107.489C170.385 107.699 170.654 108.041 170.79 108.516L171.874 112.564L170.159 113.023L169.266 109.692C169.194 109.455 169.105 109.272 169 109.141C168.892 109.003 168.717 108.957 168.474 109.005C168.194 109.08 167.982 109.242 167.837 109.493C167.699 109.733 167.621 110.018 167.604 110.349C167.593 110.669 167.63 110.99 167.716 111.311L168.308 113.519L166.58 113.982L165.688 110.651C165.615 110.414 165.518 110.233 165.396 110.107C165.281 109.971 165.101 109.926 164.858 109.973C164.587 110.046 164.383 110.207 164.246 110.455C164.116 110.692 164.041 110.973 164.022 111.295C164.011 111.616 164.047 111.932 164.131 112.245L164.729 114.478L163.002 114.941L161.557 109.549L163.124 109.129ZM172.115 123.011C171.457 123.187 170.864 123.214 170.337 123.09C169.819 122.965 169.382 122.716 169.026 122.344C168.671 121.972 168.417 121.502 168.265 120.934C168.12 120.391 168.128 119.864 168.291 119.353C168.454 118.842 168.736 118.397 169.136 118.016C169.535 117.627 170.022 117.356 170.598 117.201C171.371 116.994 172.065 117.051 172.68 117.371C173.301 117.68 173.799 118.239 174.174 119.047L170.336 121.504L169.702 120.668L172.463 118.831L172.148 119.087C172.025 118.891 171.856 118.738 171.641 118.628C171.433 118.507 171.16 118.492 170.822 118.583C170.567 118.651 170.358 118.773 170.193 118.95C170.035 119.115 169.932 119.324 169.885 119.575C169.843 119.815 169.862 120.083 169.942 120.379C170.032 120.717 170.17 120.984 170.355 121.181C170.538 121.37 170.752 121.494 170.996 121.551C171.241 121.609 171.495 121.603 171.758 121.532C171.948 121.482 172.12 121.4 172.275 121.288C172.438 121.174 172.592 121.04 172.736 120.887L173.845 121.965C173.601 122.207 173.324 122.422 173.013 122.611C172.71 122.798 172.411 122.931 172.115 123.011Z" fill="#F45B69" fill-opacity="0.25"/>
<path d="M229.634 0.74663L239.43 -65.1136L240.047 -65.2789L281.461 -13.1403L268.504 -9.6686L241.036 -46.78L247.647 -54.5027L240.663 -2.20849L229.634 0.74663ZM241.644 -24.4592L258.689 -29.0262L265.143 -20.671L240.695 -14.1202L241.644 -24.4592Z" fill="#BDDEC2" fill-opacity="0.6"/>
<path d="M225.214 68.5665C224.046 67.6844 223.22 66.7615 222.735 65.7977C222.289 64.8302 222.038 63.8266 221.98 62.7869L223.137 62.1655L220.853 64.6759L216.393 61.3081L237.586 38.006L242.015 41.3497L230.545 53.9606L231.754 52.6316C232.7 52.6154 233.764 52.8044 234.946 53.1987C236.128 53.593 237.303 54.2311 238.471 55.1132C239.682 56.0273 240.545 57.127 241.06 58.4124C241.575 59.6977 241.664 61.0768 241.327 62.5497C241.03 64.0189 240.219 65.482 238.894 66.939C237.568 68.396 236.082 69.3995 234.436 69.9496C232.81 70.5156 231.186 70.6672 229.562 70.4042C227.938 70.1413 226.489 69.5287 225.214 68.5665ZM227.396 64.3358C228.055 64.8329 228.804 65.1325 229.642 65.2344C230.502 65.3524 231.353 65.264 232.194 64.9693C233.035 64.6746 233.769 64.1827 234.396 63.4936C235.023 62.8045 235.408 62.0658 235.552 61.2776C235.695 60.4894 235.615 59.7311 235.31 59.0028C235.044 58.2708 234.582 57.6562 233.924 57.1591C233.35 56.7261 232.728 56.4057 232.057 56.198C231.425 55.9867 230.786 55.9022 230.138 55.9446C229.53 55.9834 228.933 56.1471 228.348 56.436L225.473 59.5961C225.334 60.2217 225.3 60.8105 225.372 61.3624C225.482 61.9107 225.699 62.44 226.023 62.9503C226.365 63.4409 226.823 63.9028 227.396 64.3358Z" fill="#BDDEC2" fill-opacity="0.6"/>
<path d="M213.188 93.6469L254.602 41.5083L255.219 41.6737L265.015 107.534L252.059 104.062L246.826 58.1887L256.412 54.8057L224.217 96.602L213.188 93.6469ZM236.192 77.8231L253.237 82.3901L254.649 92.853L230.201 86.3022L236.192 77.8231Z" fill="#BDDEC2" fill-opacity="0.6"/>
<path d="M268.208 74.8056L272.669 78.1731L268.099 84.2269L271.476 86.7766L268.855 90.2495L265.477 87.6999L257.539 98.2144L253.079 94.8469L261.016 84.3324L258.85 82.6967L261.472 79.2238L263.638 80.8594L268.208 74.8056Z" fill="#BDDEC2" fill-opacity="0.6"/>
<path d="M240.39 78.6734C239.904 78.5434 239.537 78.2862 239.287 77.9019C239.04 77.5093 238.972 77.0723 239.083 76.5907L240.164 72.5556L241.892 73.0185L240.982 76.412C240.935 76.6549 240.945 76.8648 241.012 77.0415C241.082 77.21 241.244 77.3285 241.499 77.3968C241.754 77.4651 241.995 77.4372 242.222 77.3129C242.458 77.1908 242.665 76.995 242.843 76.7253C243.031 76.4495 243.176 76.1225 243.278 75.744L243.866 73.5476L245.594 74.0105L244.149 79.4029L242.582 78.983L242.71 77.9595L242.705 78.0771C242.522 78.2662 242.313 78.4217 242.078 78.5438C241.842 78.6659 241.581 78.7369 241.293 78.7568C241.012 78.7872 240.711 78.7594 240.39 78.6734Z" fill="#F6828B" fill-opacity="0.75"/>
<path d="M242.75 64.551C243.211 62.8285 244.023 61.3928 245.185 60.2439C246.373 59.1018 247.803 58.3414 249.475 57.9628C251.153 57.5585 252.944 57.6113 254.846 58.121C256.775 58.6376 258.339 59.4838 259.539 60.6596C260.746 61.8097 261.54 63.1659 261.921 64.7282C262.327 66.2974 262.299 67.9432 261.838 69.6656C261.376 71.388 260.574 72.84 259.431 74.0216C258.32 75.1843 256.951 75.9747 255.323 76.3928C253.696 76.8109 251.893 76.7547 249.913 76.2243C248.062 75.7284 246.5 74.9241 245.228 73.8117C243.981 72.7061 243.129 71.3619 242.671 69.7789C242.214 68.196 242.24 66.4533 242.75 64.551ZM248.177 66.0464C247.942 66.9205 247.909 67.7656 248.076 68.5819C248.25 69.3724 248.59 70.056 249.097 70.6327C249.604 71.2093 250.243 71.601 251.014 71.8076C251.862 72.0349 252.65 72.0256 253.377 71.7796C254.104 71.5336 254.728 71.1083 255.248 70.5037C255.775 69.8735 256.156 69.1213 256.39 68.2472C256.631 67.3475 256.678 66.5058 256.529 65.7221C256.381 64.9384 256.054 64.2583 255.547 63.6816C255.04 63.105 254.363 62.703 253.514 62.4757C252.743 62.269 251.994 62.2887 251.267 62.5347C250.539 62.7807 249.903 63.2026 249.357 63.8002C248.811 64.3979 248.418 65.1466 248.177 66.0464Z" fill="white" fill-opacity="0.75"/>
</g>
<defs>
<clipPath id="clip0_308_2867">
<rect width="263" height="141" fill="white"/>
</clipPath>
</defs>
</svg>
