<svg width="276" height="549" viewBox="0 0 276 549" fill="none" xmlns="http://www.w3.org/2000/svg">
    <path fill-rule="evenodd" clip-rule="evenodd" d="M242.671 537.286c-4.37-5.487-9.868-13.198-12.405-17.054-5.639-8.75-4.37-9.047-14.802 3.856-18.891 23.579-30.028 20.91-45.393-10.975l-3.243-6.673c-10.29 14.978-13.674 19.872-20.722 25.359-11.982 9.046-22.134 2.966-35.243-21.355-6.062-11.122-4.511-11.419-15.507 2.818-20.722 27.287-32.282 26.694-48.776-2.373l-7.19-12.605C16.13 528.24 4.994 543.515 1.328 493.39c-3.243-45.379.563-351.023-.14-449.938C.905 3.856 3.442 0 10.067 0c3.806 0 14.944 10.53 23.401 22.097l4.793 6.525 7.753-9.047c21.147-24.616 30.451-23.727 43.844 4.3 3.947 8.305 7.611 14.534 8.176 13.793.564-.74 5.638-7.712 11.136-15.57 17.762-25.063 29.745-20.17 41.728 5.93 6.767 14.681 5.78 14.533 13.392.89C180.08.89 191.638-.295 206.019 24.619c9.444 16.461 8.88 16.015 12.968 7.266 4.088-8.898 14.381-20.316 21.006-23.283 38.768-17.202 33.551 1.187 33.833 17.797 1.692 90.314 3.102 458.835 1.41 484.639-2.255 38.41-14.944 48.642-32.565 26.249zm-100.935-27.583c3.948-6.822 8.317-15.423 9.869-19.131 7.47-18.537 21.285-14.385 33.127 10.085 11.137 22.838 11.56 22.837 21.287 3.559 5.921-11.864 10.572-16.313 17.058-16.313 7.33 0 8.317.89 19.03 17.944 5.64 8.898 10.432 16.016 10.713 15.719.847-.889.425-493.388-.422-497.244-1.127-4.6-2.255-3.56-13.534 11.862-24.81 33.664-35.382 23.135-52.3-6.228-3.383 4.745-5.355 8.156-6.484 10.529-12.546 27.881-35.243 20.614-46.381-.593l-5.214-10.084-8.599 9.936c-10.856 12.605-21.712 18.834-30.17 17.35-7.753-1.333-9.443-5.633-22.977-34.7C62.51 26.1 53.63 33.812 48.272 39.448c-6.767 7.266-19.313 7.71-23.401.889-2.82-4.597 4.229 331.002-4.37 430.066-1.833 21.652-1.41 23.135 4.37 13.347 4.933-8.304 7.188-9.639 15.928-9.639 7.19.148 12.407 5.042 18.609 18.092 5.217 10.974 8.741 17.055 11.56 22.394 3.666-5.191 17.903-25.656 21.428-28.919 5.64-5.339 21.286-4.3 21.286 1.335 0 2.966 10.008 16.609 16.211 27.88 4.794 8.898 3.525 9.491 11.843-5.19z" fill="#F4E604" fill-opacity=".35"/>
</svg>
