<svg width="252" height="241" viewBox="0 0 252 241" fill="none" xmlns="http://www.w3.org/2000/svg">
    <path fill-rule="evenodd" clip-rule="evenodd" d="M382.657 211.897c-3.908-3.815-9.4-8.616-12.146-10.832-6.231-4.924-6.443-3.815 2.746-12.924 16.794-16.495 14.893-26.221-7.816-39.637l-4.752-2.831c10.667-8.986 14.153-11.941 18.06-18.095 6.443-10.463 2.113-19.327-15.209-30.774-7.921-5.293-8.132-3.938 2.007-13.54 19.434-18.095 19.012-28.189-1.69-42.59l-8.977-6.279c21.335-20.311 32.213-30.035-3.486-33.235-32.319-2.832-250 .492-320.447-.123C2.747.79 0 3.006 0 8.79c0 3.324 7.499 13.049 15.738 20.434l4.647 4.185-6.444 6.77C-3.59 58.645-2.957 66.77 17.004 78.464c5.915 3.447 10.35 6.646 9.823 7.14-.527.491-5.492 4.922-11.09 9.723-17.849 15.51-14.364 25.973 4.224 36.436 10.457 5.909 10.351 5.047.635 11.694-19.963 13.787-20.807 23.879-3.063 36.436 11.724 8.246 11.406 7.755 5.175 11.324-6.337 3.57-14.47 12.557-16.582 18.342-12.252 33.852.845 29.297 12.675 29.543 64.322 1.477 326.784 2.709 345.162 1.231 27.355-1.969 34.643-13.049 18.694-28.436zm-19.645-88.134c-4.858 3.446-10.984 7.262-13.625 8.616-13.202 6.523-10.245 18.587 7.183 28.927 16.265 9.725 16.265 10.094 2.534 18.587-8.449 5.17-11.618 9.232-11.618 14.895 0 6.4.634 7.263 12.78 16.617 6.337 4.924 11.407 9.109 11.196 9.355-.634.739-351.394.37-354.14-.369-3.275-.984-2.535-1.969 8.449-11.817 23.975-21.664 16.476-30.896-4.436-45.668 3.379-2.955 5.809-4.677 7.498-5.662 19.858-10.955 14.682-30.774-.422-40.499l-7.182-4.554 7.077-7.508c8.977-9.48 13.413-18.958 12.357-26.344-.95-6.77-4.013-8.246-24.714-20.063 2.64-3.693 8.132-11.447 12.146-16.125 5.175-5.91 5.491-16.865.633-20.434-3.274-2.463 235.741 3.692 306.295-3.816 15.421-1.6 16.477-1.231 9.506 3.816-5.915 4.307-6.865 6.277-6.865 13.908.105 6.278 3.591 10.833 12.885 16.25 7.816 4.554 12.146 7.632 15.949 10.093-3.697 3.201-18.272 15.633-20.596 18.711-3.802 4.924-3.063 18.586.951 18.586 2.112 0 11.829 8.74 19.856 14.156 6.337 4.186 6.76 3.078-3.697 10.342z" fill="#F45B69" fill-opacity=".25"/>
</svg>
